# xmcd CD database file
#
# Track frame offsets:
#	150
#	14552
#	29475
#	44089
#	58632
#	71850
#	84952
#	97485
#	112100
#	127940
#	141615
#	155347
#	168845
#	181222
#	196510
#	210012
#	223450
#	243512
#	258945
#	274697
#	289180
#	332307
#
# Disc length: 4712 seconds
#
# Revision: 0
# Processed by: cddbd v1.4PL0 Copyright (c) Steve Scherf et al.
# Submitted via: CDex 1.50beta9
#
DISCID=4c126616
DTITLE=Various Artist - 2-CD Set for Jazz: The First 100 Years [CD1]
DYEAR=1900
DGENRE=Jazz
TTITLE0=Earl Fuller's Rector Novelty Orchestra: Pork and Beans
TTITLE1=Bessie Smith: Back Water Blues
TTITLE2=Clarence Williams' Blues Five: Texas Moaner Blues
TTITLE3=Jelly Roll Morton's Red Hot Peppers: The Chant
TTITLE4=King Oliver: High Society
TTITLE5=Louis Armstrong and His Hot Seven: S.O.L. Blues
TTITLE6=Bix Beiderbecke: The Jazz Me Blues
TTITLE7=James P. Johnson: You've Got to Be Modernistic
TTITLE8=Duke Ellington and His Cotton Club Orchestra: The Mooche
TTITLE9=Fletcher Henderson: Down South Camp Meeting
TTITLE10=Andy Kirk and His Twelve Clouds of Joy: Mary's Idea
TTITLE11=Lester Young: Shoe Shine Boy
TTITLE12=Benny Goodman Quartet: Avalon
TTITLE13=Duke Ellington and His Famous Orchestra: Sepia Panorama
TTITLE14=Coleman Hawkins: Ready fo Love
TTITLE15=Billie Holiday: All of Me
TTITLE16=Charlie Parker/Dizzy Gillespie Quintet: Gillespie: Salt Peanuts (excerpt 3:00)
TTITLE17=Charlie Parker: Bloomdido 
TTITLE18=Thelonious Monk: Four In One
TTITLE19=Miles Davis: Jeru
TTITLE20=Art Blakey/Horace Silver: Blakey/Silver: Moanin'
TTITLE21=Charles Mingus: Hora Decubitus
EXTD=
EXTT0=
EXTT1=
EXTT2=
EXTT3=
EXTT4=
EXTT5=
EXTT6=
EXTT7=
EXTT8=
EXTT9=
EXTT10=
EXTT11=
EXTT12=
EXTT13=
EXTT14=
EXTT15=
EXTT16=
EXTT17=
EXTT18=
EXTT19=
EXTT20=
EXTT21=
PLAYORDER=
